<mxfile host="app.diagrams.net" modified="2022-07-15T10:07:56.381Z" agent="5.0 (Macintosh; Intel Mac OS X 10_15_7) AppleWebKit/537.36 (KHTML, like Gecko) Chrome/103.0.0.0 Safari/537.36" etag="T9B4yxOwsg3q-mgxr8Nn" version="20.1.1" type="github">
  <diagram id="fi-OBeDVoVyC95V5E4uT" name="Page-1">
    <mxGraphModel dx="1398" dy="1934" grid="1" gridSize="10" guides="1" tooltips="1" connect="1" arrows="1" fold="1" page="1" pageScale="1" pageWidth="827" pageHeight="1169" math="0" shadow="0">
      <root>
        <mxCell id="0" />
        <mxCell id="1" parent="0" />
        <mxCell id="bnStx1pnyQ37RkCmjhWe-157" style="edgeStyle=orthogonalEdgeStyle;rounded=0;orthogonalLoop=1;jettySize=auto;html=1;" edge="1" parent="1" source="bnStx1pnyQ37RkCmjhWe-155" target="bnStx1pnyQ37RkCmjhWe-148">
          <mxGeometry relative="1" as="geometry" />
        </mxCell>
        <mxCell id="bnStx1pnyQ37RkCmjhWe-108" style="edgeStyle=orthogonalEdgeStyle;rounded=0;orthogonalLoop=1;jettySize=auto;html=1;" edge="1" parent="1" source="bnStx1pnyQ37RkCmjhWe-2" target="bnStx1pnyQ37RkCmjhWe-109">
          <mxGeometry relative="1" as="geometry">
            <mxPoint x="438.9100000000001" y="91" as="targetPoint" />
          </mxGeometry>
        </mxCell>
        <mxCell id="bnStx1pnyQ37RkCmjhWe-2" value="inputRawFrame&lt;br&gt;cpu i420" style="rounded=1;whiteSpace=wrap;html=1;" vertex="1" parent="1">
          <mxGeometry x="350" y="-80" width="120" height="60" as="geometry" />
        </mxCell>
        <mxCell id="bnStx1pnyQ37RkCmjhWe-150" style="edgeStyle=orthogonalEdgeStyle;rounded=0;orthogonalLoop=1;jettySize=auto;html=1;" edge="1" parent="1" source="bnStx1pnyQ37RkCmjhWe-109" target="bnStx1pnyQ37RkCmjhWe-127">
          <mxGeometry relative="1" as="geometry" />
        </mxCell>
        <mxCell id="bnStx1pnyQ37RkCmjhWe-109" value="InitParam" style="swimlane;fontStyle=0;childLayout=stackLayout;horizontal=1;startSize=26;fillColor=none;horizontalStack=0;resizeParent=1;resizeParentMax=0;resizeLast=0;collapsible=1;marginBottom=0;" vertex="1" parent="1">
          <mxGeometry x="305" y="40" width="210" height="130" as="geometry" />
        </mxCell>
        <mxCell id="bnStx1pnyQ37RkCmjhWe-110" value="input_tex: glGenTexture" style="text;strokeColor=none;fillColor=none;align=left;verticalAlign=top;spacingLeft=4;spacingRight=4;overflow=hidden;rotatable=0;points=[[0,0.5],[1,0.5]];portConstraint=eastwest;" vertex="1" parent="bnStx1pnyQ37RkCmjhWe-109">
          <mxGeometry y="26" width="210" height="26" as="geometry" />
        </mxCell>
        <mxCell id="bnStx1pnyQ37RkCmjhWe-116" value="output_tex: glGenTexture" style="text;strokeColor=none;fillColor=none;align=left;verticalAlign=top;spacingLeft=4;spacingRight=4;overflow=hidden;rotatable=0;points=[[0,0.5],[1,0.5]];portConstraint=eastwest;" vertex="1" parent="bnStx1pnyQ37RkCmjhWe-109">
          <mxGeometry y="52" width="210" height="26" as="geometry" />
        </mxCell>
        <mxCell id="bnStx1pnyQ37RkCmjhWe-111" value="fbo: glGenFramebuffers" style="text;strokeColor=none;fillColor=none;align=left;verticalAlign=top;spacingLeft=4;spacingRight=4;overflow=hidden;rotatable=0;points=[[0,0.5],[1,0.5]];portConstraint=eastwest;" vertex="1" parent="bnStx1pnyQ37RkCmjhWe-109">
          <mxGeometry y="78" width="210" height="26" as="geometry" />
        </mxCell>
        <mxCell id="bnStx1pnyQ37RkCmjhWe-112" value="shader_program: glCreateProgram" style="text;strokeColor=none;fillColor=none;align=left;verticalAlign=top;spacingLeft=4;spacingRight=4;overflow=hidden;rotatable=0;points=[[0,0.5],[1,0.5]];portConstraint=eastwest;" vertex="1" parent="bnStx1pnyQ37RkCmjhWe-109">
          <mxGeometry y="104" width="210" height="26" as="geometry" />
        </mxCell>
        <mxCell id="bnStx1pnyQ37RkCmjhWe-151" style="edgeStyle=orthogonalEdgeStyle;rounded=0;orthogonalLoop=1;jettySize=auto;html=1;entryX=0.5;entryY=0;entryDx=0;entryDy=0;" edge="1" parent="1" source="bnStx1pnyQ37RkCmjhWe-127" target="bnStx1pnyQ37RkCmjhWe-155">
          <mxGeometry relative="1" as="geometry" />
        </mxCell>
        <mxCell id="bnStx1pnyQ37RkCmjhWe-127" value="fbo &lt;=&gt; output_tex" style="swimlane;fontStyle=0;childLayout=stackLayout;horizontal=1;startSize=26;fillColor=none;horizontalStack=0;resizeParent=1;resizeParentMax=0;resizeLast=0;collapsible=1;marginBottom=0;" vertex="1" parent="1">
          <mxGeometry x="300" y="240" width="220" height="78" as="geometry" />
        </mxCell>
        <mxCell id="bnStx1pnyQ37RkCmjhWe-128" value="glBindFramebuffer: fbo" style="text;strokeColor=none;fillColor=none;align=left;verticalAlign=top;spacingLeft=4;spacingRight=4;overflow=hidden;rotatable=0;points=[[0,0.5],[1,0.5]];portConstraint=eastwest;" vertex="1" parent="bnStx1pnyQ37RkCmjhWe-127">
          <mxGeometry y="26" width="220" height="26" as="geometry" />
        </mxCell>
        <mxCell id="bnStx1pnyQ37RkCmjhWe-129" value="glFramebufferTexture2D: output_tex" style="text;strokeColor=none;fillColor=none;align=left;verticalAlign=top;spacingLeft=4;spacingRight=4;overflow=hidden;rotatable=0;points=[[0,0.5],[1,0.5]];portConstraint=eastwest;" vertex="1" parent="bnStx1pnyQ37RkCmjhWe-127">
          <mxGeometry y="52" width="220" height="26" as="geometry" />
        </mxCell>
        <mxCell id="bnStx1pnyQ37RkCmjhWe-148" value="glViewport&lt;br&gt;glDisable&lt;br&gt;glDrawArrays" style="rounded=1;whiteSpace=wrap;html=1;" vertex="1" parent="1">
          <mxGeometry x="350" y="900" width="120" height="60" as="geometry" />
        </mxCell>
        <mxCell id="bnStx1pnyQ37RkCmjhWe-158" value="" style="group" vertex="1" connectable="0" parent="1">
          <mxGeometry x="240" y="374" width="340" height="456" as="geometry" />
        </mxCell>
        <mxCell id="bnStx1pnyQ37RkCmjhWe-155" value="" style="rounded=1;whiteSpace=wrap;html=1;" vertex="1" parent="bnStx1pnyQ37RkCmjhWe-158">
          <mxGeometry width="340" height="456" as="geometry" />
        </mxCell>
        <mxCell id="bnStx1pnyQ37RkCmjhWe-132" value="attribute =&gt; shader_program" style="swimlane;fontStyle=0;childLayout=stackLayout;horizontal=1;startSize=26;fillColor=none;horizontalStack=0;resizeParent=1;resizeParentMax=0;resizeLast=0;collapsible=1;marginBottom=0;" vertex="1" parent="bnStx1pnyQ37RkCmjhWe-158">
          <mxGeometry x="80" y="76" width="180" height="78" as="geometry" />
        </mxCell>
        <mxCell id="bnStx1pnyQ37RkCmjhWe-133" value=" glUseProgram" style="text;strokeColor=none;fillColor=none;align=left;verticalAlign=top;spacingLeft=4;spacingRight=4;overflow=hidden;rotatable=0;points=[[0,0.5],[1,0.5]];portConstraint=eastwest;" vertex="1" parent="bnStx1pnyQ37RkCmjhWe-132">
          <mxGeometry y="26" width="180" height="26" as="geometry" />
        </mxCell>
        <mxCell id="bnStx1pnyQ37RkCmjhWe-134" value="glUniform1i" style="text;strokeColor=none;fillColor=none;align=left;verticalAlign=top;spacingLeft=4;spacingRight=4;overflow=hidden;rotatable=0;points=[[0,0.5],[1,0.5]];portConstraint=eastwest;" vertex="1" parent="bnStx1pnyQ37RkCmjhWe-132">
          <mxGeometry y="52" width="180" height="26" as="geometry" />
        </mxCell>
        <mxCell id="bnStx1pnyQ37RkCmjhWe-136" value="input_tex =&gt; shader_program" style="swimlane;fontStyle=0;childLayout=stackLayout;horizontal=1;startSize=26;fillColor=none;horizontalStack=0;resizeParent=1;resizeParentMax=0;resizeLast=0;collapsible=1;marginBottom=0;" vertex="1" parent="bnStx1pnyQ37RkCmjhWe-158">
          <mxGeometry x="60" y="186" width="220" height="78" as="geometry" />
        </mxCell>
        <mxCell id="bnStx1pnyQ37RkCmjhWe-137" value="glActiveTexture" style="text;strokeColor=none;fillColor=none;align=left;verticalAlign=top;spacingLeft=4;spacingRight=4;overflow=hidden;rotatable=0;points=[[0,0.5],[1,0.5]];portConstraint=eastwest;" vertex="1" parent="bnStx1pnyQ37RkCmjhWe-136">
          <mxGeometry y="26" width="220" height="26" as="geometry" />
        </mxCell>
        <mxCell id="bnStx1pnyQ37RkCmjhWe-138" value="glBindTexture" style="text;strokeColor=none;fillColor=none;align=left;verticalAlign=top;spacingLeft=4;spacingRight=4;overflow=hidden;rotatable=0;points=[[0,0.5],[1,0.5]];portConstraint=eastwest;" vertex="1" parent="bnStx1pnyQ37RkCmjhWe-136">
          <mxGeometry y="52" width="220" height="26" as="geometry" />
        </mxCell>
        <mxCell id="bnStx1pnyQ37RkCmjhWe-144" value="vertex_pos,texture_pos =&gt; shader_program" style="swimlane;fontStyle=0;childLayout=stackLayout;horizontal=1;startSize=26;fillColor=none;horizontalStack=0;resizeParent=1;resizeParentMax=0;resizeLast=0;collapsible=1;marginBottom=0;" vertex="1" parent="bnStx1pnyQ37RkCmjhWe-158">
          <mxGeometry x="35" y="306" width="270" height="104" as="geometry" />
        </mxCell>
        <mxCell id="bnStx1pnyQ37RkCmjhWe-145" value="glBindBuffer" style="text;strokeColor=none;fillColor=none;align=left;verticalAlign=top;spacingLeft=4;spacingRight=4;overflow=hidden;rotatable=0;points=[[0,0.5],[1,0.5]];portConstraint=eastwest;" vertex="1" parent="bnStx1pnyQ37RkCmjhWe-144">
          <mxGeometry y="26" width="270" height="26" as="geometry" />
        </mxCell>
        <mxCell id="bnStx1pnyQ37RkCmjhWe-146" value="glEnableVertexAttribArray" style="text;strokeColor=none;fillColor=none;align=left;verticalAlign=top;spacingLeft=4;spacingRight=4;overflow=hidden;rotatable=0;points=[[0,0.5],[1,0.5]];portConstraint=eastwest;" vertex="1" parent="bnStx1pnyQ37RkCmjhWe-144">
          <mxGeometry y="52" width="270" height="26" as="geometry" />
        </mxCell>
        <mxCell id="bnStx1pnyQ37RkCmjhWe-147" value="glVertexAttribPointer" style="text;strokeColor=none;fillColor=none;align=left;verticalAlign=top;spacingLeft=4;spacingRight=4;overflow=hidden;rotatable=0;points=[[0,0.5],[1,0.5]];portConstraint=eastwest;" vertex="1" parent="bnStx1pnyQ37RkCmjhWe-144">
          <mxGeometry y="78" width="270" height="26" as="geometry" />
        </mxCell>
        <mxCell id="bnStx1pnyQ37RkCmjhWe-156" value="data =&amp;gt; shader_program" style="text;html=1;strokeColor=none;fillColor=none;align=center;verticalAlign=middle;whiteSpace=wrap;rounded=0;" vertex="1" parent="bnStx1pnyQ37RkCmjhWe-158">
          <mxGeometry x="105" y="16" width="150" height="30" as="geometry" />
        </mxCell>
      </root>
    </mxGraphModel>
  </diagram>
</mxfile>
